<svg xmlns="http://www.w3.org/2000/svg" xmlns:xlink="http://www.w3.org/1999/xlink" viewBox="0,0,256,256" width="100px" height="100px" fill-rule="nonzero"><g fill="none" fill-rule="nonzero" stroke="none" stroke-width="none" stroke-linecap="none" stroke-linejoin="none" stroke-miterlimit="10" stroke-dasharray="" stroke-dashoffset="0" font-family="none" font-weight="none" font-size="none" text-anchor="none" style="mix-blend-mode: normal"><g transform="scale(2.56,2.56)"><path d="M52.958,99.257c-8.568,0 -16.438,-4.297 -20.784,-11.279l-7.621,1.227c-0.312,0.054 -0.678,0.084 -1.041,0.084c-2.097,0 -4.076,-1.024 -5.294,-2.742c-1.447,-2.051 -1.599,-4.681 -0.403,-6.872l1.206,-2.21l-2.178,-2.981c-2.348,-0.762 -6.295,-1.205 -6.674,-3.64c-0.379,-2.44 0.632,-4.848 2.64,-6.284l4.13,-2.96l-6.01,-6.259c-1.568,-1.636 -2.176,-4.008 -1.588,-6.192c0.595,-2.194 2.314,-3.938 4.49,-4.56l2.269,-0.647l-7.753,-10.662c-1.565,-2.152 -1.667,-5.002 -0.26,-7.26c1.196,-1.919 3.255,-3.064 5.509,-3.064c0.39,0 0.782,0.036 1.165,0.106l9.693,1.685l-2.251,-11.743c-0.497,-2.601 0.611,-5.215 2.824,-6.663c1.064,-0.695 2.294,-1.062 3.56,-1.062c1.322,0 1.391,2.015 2.48,2.765l14.292,9.64l11.77,-9.632c1.204,-1.142 2.792,-1.774 4.464,-1.774c0.786,0 1.558,0.141 2.292,0.418c2.302,0.866 3.943,3.011 4.179,5.462l0.896,9.4l14.181,-3.064c0.438,-0.097 0.908,-0.148 1.376,-0.148c1.956,0 3.788,0.869 5.027,2.383c1.549,1.893 1.907,4.462 0.934,6.705l-5.495,12.64l9.167,3.873c2.301,0.973 3.855,3.211 3.965,5.702c0.105,2.498 -1.248,4.861 -3.448,6.028l-5.187,2.745l1.886,1.372c1.847,1.339 2.864,3.589 2.648,5.868c-0.215,2.278 -1.636,4.299 -3.708,5.272l-2.731,1.283l1.819,3.799c0.915,1.905 0.843,4.147 -0.194,5.993c-1.042,1.85 -2.921,3.076 -5.029,3.283l-4.082,0.406c0.032,1.985 -0.847,3.886 -2.402,5.149c-1.149,0.937 -2.606,1.455 -4.096,1.455v0c-0.633,0 -1.261,-0.093 -1.866,-0.274l-1.588,-0.473c-3.859,4.576 -9.599,7.376 -16.018,7.674c-0.396,0.018 -0.779,0.028 -1.161,0.028z" fill="#f5f5f5" stroke="none" stroke-width="1" stroke-linecap="butt" stroke-linejoin="miter" opacity="0.35"></path><path d="M50.887,97.982c-8.568,0 -16.438,-4.297 -20.784,-11.279l-7.621,1.227c-0.312,0.054 -0.678,0.084 -1.041,0.084c-2.097,0 -4.076,-1.024 -5.294,-2.742c-1.447,-2.051 -1.599,-4.681 -0.403,-6.872l1.206,-2.21l-4.434,-1.438c-2.348,-0.762 -4.039,-2.748 -4.418,-5.184c-0.379,-2.44 0.632,-4.848 2.64,-6.284l4.13,-2.96l-6.01,-6.259c-1.568,-1.636 -2.176,-4.008 -1.588,-6.192c0.595,-2.194 2.314,-3.938 4.49,-4.56l2.269,-0.647l-7.752,-10.66c-1.565,-2.152 -1.667,-5.002 -0.26,-7.26c1.196,-1.919 3.255,-3.064 5.509,-3.064c0.39,0 0.782,0.036 1.165,0.106l9.693,1.685l-2.251,-11.743c-0.497,-2.601 0.611,-5.215 2.824,-6.663c1.064,-0.695 2.294,-1.062 3.56,-1.062c1.322,0 2.597,0.396 3.686,1.146l15.388,10.57l9.469,-8.943c1.204,-1.142 2.792,-1.774 4.464,-1.774c0.786,0 1.558,0.141 2.292,0.418c2.302,0.866 3.943,3.011 4.179,5.462l0.896,9.4l14.181,-3.064c0.438,-0.097 0.908,-0.148 1.376,-0.148c1.956,0 3.788,0.869 5.027,2.383c1.549,1.893 1.907,4.462 0.934,6.705l-5.495,12.64l9.167,3.873c2.301,0.973 3.855,3.211 3.965,5.702c0.105,2.498 -1.248,4.861 -3.448,6.028l-5.187,2.745l1.886,1.372c1.847,1.339 2.864,3.589 2.648,5.868c-0.215,2.278 -1.636,4.299 -3.708,5.272l-2.731,1.283l1.819,3.799c0.915,1.905 0.843,4.147 -0.194,5.993c-1.042,1.85 -2.921,3.076 -5.029,3.283l-4.082,0.406c0.032,1.985 -0.847,3.886 -2.402,5.149c-1.149,0.937 -2.606,1.455 -4.096,1.455v0c-0.633,0 -1.261,-0.093 -1.866,-0.274l-1.588,-0.473c-3.859,4.576 -9.599,7.376 -16.018,7.674c-0.398,0.018 -0.781,0.027 -1.163,0.027z" fill="#f5f5f5" stroke="none" stroke-width="1" stroke-linecap="butt" stroke-linejoin="miter"></path><path d="M34.669,79.414l-13.221,1.652l4.958,-9.089l-11.568,-3.305l9.915,-7.436l-11.568,-11.569l11.568,-3.305l-13.22,-18.179l19.005,3.306l-4.132,-20.658l19.832,13.221l13.22,-13.221l1.653,17.352l21.483,-4.958l-8.262,19.005l14.873,6.611l-14.047,7.437l10.742,7.437l-9.089,4.13l4.957,9.917l-10.742,0.826l0.827,5.784l-22.31,-5.784z" fill="#f5f5f5" stroke="none" stroke-width="1" stroke-linecap="butt" stroke-linejoin="miter"></path><circle cx="31.947" cy="64.974" r="5.326" fill="#f5f5f5" stroke="none" stroke-width="1" stroke-linecap="butt" stroke-linejoin="miter"></circle><circle cx="68.339" cy="64.974" r="5.326" fill="#f5f5f5" stroke="none" stroke-width="1" stroke-linecap="butt" stroke-linejoin="miter"></circle><path d="M33.309,45.807c0,0 -3.033,24.638 3.033,35.765c6.066,11.127 23.505,11.922 28.054,-0.795c4.549,-12.717 3.542,-26.819 2.274,-36.56c-2.274,-17.484 -31.845,-23.048 -33.361,1.59z" fill="#f5f5f5" stroke="none" stroke-width="1" stroke-linecap="butt" stroke-linejoin="miter"></path><path d="M36.081,49.441c-0.898,1.455 -1.282,3.261 -0.849,5.176c0.588,2.611 2.732,4.684 5.363,5.18c4.386,0.825 8.217,-2.516 8.217,-6.753c0,-1.323 -0.38,-2.554 -1.027,-3.604h-11.704z" fill="#f5f5f5" stroke="none" stroke-width="1" stroke-linecap="butt" stroke-linejoin="miter"></path><path d="M52.945,49.441c-0.898,1.455 -1.282,3.261 -0.849,5.176c0.588,2.611 2.732,4.684 5.363,5.18c4.386,0.825 8.217,-2.516 8.217,-6.753c0,-1.323 -0.38,-2.554 -1.027,-3.604h-11.704z" fill="#f5f5f5" stroke="none" stroke-width="1" stroke-linecap="butt" stroke-linejoin="miter"></path><circle cx="42.155" cy="52.104" r="1.331" fill="#f5f5f5" stroke="none" stroke-width="1" stroke-linecap="butt" stroke-linejoin="miter"></circle><circle cx="59.019" cy="52.104" r="1.331" fill="#f5f5f5" stroke="none" stroke-width="1" stroke-linecap="butt" stroke-linejoin="miter"></circle><path d="M25.615,40.901l1.819,2.374" fill="none" stroke="none" stroke-width="1" stroke-linecap="butt" stroke-linejoin="miter"></path><path d="M19.275,32.624l4.554,5.946" fill="none" stroke="none" stroke-width="1" stroke-linecap="butt" stroke-linejoin="miter"></path><path d="M32.472,23.277l1.42,6.175" fill="none" stroke="none" stroke-width="1" stroke-linecap="butt" stroke-linejoin="miter"></path><path d="M31.286,18.121l0.561,2.437" fill="none" stroke="none" stroke-width="1" stroke-linecap="butt" stroke-linejoin="miter"></path><path d="M75.158,56.277l14.391,-7.618l-15.217,-6.429l8.112,-18.658l-21.332,4.611l-1.589,-16.68l-13.285,12.549l-19.721,-13.546l4.021,20.983l-19.005,-3.305l13.221,18.179l-11.207,3.201l11.207,11.672l-10.233,7.333l11.886,3.855l-4.958,9.089l12.422,-1.999c0.411,1.115 0.85,2.19 1.385,3.139c6.434,11.414 24.565,12.122 29.989,0.005l6.273,1.87l-0.49,-5.94l10.434,-1.037l-4.65,-9.705l8.661,-4.069z" fill="none" stroke="#f5f5f5" stroke-width="3" stroke-linecap="round" stroke-linejoin="round"></path><path d="M38.618,42.088c0,0 4.41,0.706 10.194,0c5.784,-0.706 10.164,-1.302 13.065,-0.706" fill="none" stroke="#f5f5f5" stroke-width="3" stroke-linecap="round" stroke-linejoin="round"></path><path d="M38.359,46.643c-1.911,1.167 -3.206,3.241 -3.292,5.626c4.592,-1.207 9.158,-1.389 13.698,-0.525c-0.225,-2.001 -1.307,-3.741 -2.87,-4.846z" fill="#f5f5f5" stroke="none" stroke-width="1" stroke-linecap="butt" stroke-linejoin="miter"></path><path d="M55.224,46.643c-1.911,1.167 -3.206,3.241 -3.292,5.626c4.592,-1.207 9.158,-1.389 13.698,-0.525c-0.225,-2.001 -1.307,-3.741 -2.87,-4.846z" fill="#f5f5f5" stroke="none" stroke-width="1" stroke-linecap="butt" stroke-linejoin="miter"></path><path d="M51.918,60.536v6.942c0,1.225 -0.993,2.219 -2.219,2.219v0c-1.225,0 -2.219,-0.993 -2.219,-2.219v-6.942z" fill="#f5f5f5" stroke="none" stroke-width="1" stroke-linecap="butt" stroke-linejoin="miter"></path><path d="M40.191,78.472c2.784,-1.011 10.504,-3.154 19.312,0.114" fill="none" stroke="#f5f5f5" stroke-width="3" stroke-linecap="round" stroke-linejoin="round"></path></g></g></svg>